<?xml version="1.0" encoding="UTF-8" standalone="no"?><!-- Generator: Gravit.io --><svg xmlns="http://www.w3.org/2000/svg" xmlns:xlink="http://www.w3.org/1999/xlink" style="isolation:isolate" viewBox="0 0 200 100" width="200pt" height="100pt"><defs><clipPath id="_clipPath_MP0y1LHnivutS8aBGEOBQ9JHuHo8XnRf"><rect width="200" height="100"/></clipPath></defs><g clip-path="url(#_clipPath_MP0y1LHnivutS8aBGEOBQ9JHuHo8XnRf)"><g><path d=" M 33.691 69.945 C 37.97 73.28 42.185 75.105 42.374 75.168 L 42.689 75.294 L 43.003 75.168 C 43.192 75.105 47.345 73.28 51.623 69.945 C 57.349 65.478 60.369 60.382 60.369 55.159 L 60.369 31.502 L 24.883 31.502 L 24.883 54.782 C 24.883 60.13 27.903 65.415 33.691 69.945 Z  M 41.808 62.647 C 41.619 62.584 41.43 62.521 41.179 62.521 C 41.179 62.521 41.179 62.521 41.116 62.521 C 40.235 62.521 39.606 62.584 38.914 62.647 C 38.221 62.71 37.529 62.773 36.523 62.773 C 36.082 62.773 35.642 62.773 35.327 62.773 L 35.327 51.699 C 35.39 51.699 35.453 51.699 35.453 51.699 C 35.893 51.699 36.397 51.699 37.089 51.699 C 37.655 51.699 38.284 51.636 38.977 51.573 C 39.354 51.51 39.794 51.51 40.235 51.447 C 40.99 51.384 41.619 51.51 41.619 51.51 C 41.682 51.51 41.745 51.573 41.808 51.573 C 41.808 51.51 41.808 62.647 41.808 62.647 Z  M 58.67 55.159 C 58.67 64.849 46.779 71.393 43.255 73.154 L 43.255 64.346 C 43.318 64.283 43.381 64.22 43.444 64.157 C 43.633 63.968 43.758 63.842 44.073 63.842 C 44.891 63.842 45.52 63.905 46.212 63.968 C 46.904 64.031 47.596 64.094 48.666 64.094 C 49.736 64.094 50.554 64.094 50.554 64.094 L 51.12 64.094 L 51.12 60.822 L 52.504 60.822 L 52.504 59.06 L 51.12 59.06 L 51.12 55.852 L 52.504 55.852 L 52.504 54.09 L 51.12 54.09 L 51.12 50.503 L 50.491 50.503 C 50.239 50.503 49.987 50.503 49.673 50.503 C 49.232 50.503 48.729 50.503 48.1 50.503 C 47.596 50.503 47.03 50.44 46.338 50.378 C 45.961 50.315 45.52 50.315 45.08 50.252 C 44.136 50.126 43.318 50.315 43.255 50.315 C 43.255 50.315 43.255 50.315 43.192 50.315 L 43.192 46.854 L 58.607 46.854 L 58.67 55.159 Z  M 43.255 62.71 L 43.255 51.573 C 43.318 51.51 43.444 51.51 43.57 51.447 C 43.57 51.447 44.262 51.321 45.017 51.384 C 45.457 51.447 45.898 51.447 46.275 51.51 C 46.967 51.573 47.596 51.636 48.163 51.636 C 48.729 51.636 49.169 51.636 49.61 51.636 C 49.736 51.636 49.862 51.636 49.924 51.636 L 49.924 62.773 C 49.61 62.773 49.169 62.773 48.729 62.773 C 47.722 62.773 47.03 62.71 46.338 62.647 C 45.646 62.584 45.017 62.521 44.136 62.521 C 43.758 62.584 43.507 62.647 43.255 62.71 Z  M 26.581 33.201 L 58.67 33.201 L 58.67 45.218 L 26.581 45.218 L 26.581 33.201 Z  M 26.581 46.854 L 41.871 46.854 L 41.871 50.189 C 41.619 50.126 40.927 50.063 40.172 50.126 C 39.732 50.189 39.291 50.189 38.914 50.252 C 38.221 50.315 37.655 50.378 37.152 50.378 C 36.523 50.378 36.019 50.378 35.579 50.378 C 35.264 50.378 35.013 50.378 34.761 50.378 L 34.132 50.378 L 34.132 53.586 L 32.622 53.586 L 32.622 55.348 L 34.132 55.348 L 34.132 58.557 L 32.622 58.557 L 32.622 60.319 L 34.132 60.319 L 34.132 63.905 L 34.698 63.905 C 34.761 63.905 35.579 63.968 36.586 63.905 C 37.655 63.905 38.41 63.842 39.039 63.779 C 39.732 63.716 40.298 63.654 41.116 63.654 C 41.43 63.654 41.556 63.779 41.682 63.968 C 41.682 63.968 41.745 64.031 41.745 64.031 L 41.745 72.903 C 38.159 71.267 26.581 64.786 26.581 54.782 L 26.581 46.854 Z " fill="rgb(255,255,255)"/><path d=" M 39.983 34.396 L 30.986 34.396 L 30.986 35.025 C 30.986 36.976 30.986 40.31 30.986 40.436 C 31.049 41.128 31.489 41.758 32.37 42.324 C 33.44 43.079 35.076 44.023 35.138 44.023 L 35.453 44.211 L 35.768 44.023 C 35.831 43.96 37.592 43.016 38.662 42.324 C 39.92 41.506 39.983 40.688 39.983 40.436 C 39.983 40.31 39.983 37.416 39.983 35.025 L 39.983 34.396 Z  M 32.244 35.654 L 38.662 35.654 C 38.662 36.158 38.662 36.724 38.662 37.29 L 32.244 37.29 C 32.244 36.724 32.244 36.158 32.244 35.654 Z  M 38.725 40.373 C 38.725 40.688 38.284 41.003 37.97 41.254 C 37.215 41.758 36.019 42.45 35.453 42.764 C 34.95 42.45 33.817 41.82 33.062 41.254 C 32.559 40.94 32.244 40.562 32.244 40.31 C 32.244 40.247 32.244 39.492 32.244 38.486 L 38.662 38.486 C 38.725 39.492 38.725 40.247 38.725 40.373 Z " fill="rgb(255,255,255)"/><path d=" M 55.21 34.144 L 46.086 34.144 L 46.086 34.773 C 46.086 37.227 46.086 40.185 46.086 40.373 C 46.149 41.065 46.59 41.695 47.471 42.261 C 48.603 43.016 50.239 43.96 50.302 44.023 L 50.617 44.211 L 50.931 44.023 C 50.994 43.96 52.819 43.016 53.888 42.261 C 55.21 41.38 55.21 40.625 55.21 40.373 C 55.21 40.247 55.21 37.29 55.21 34.836 L 55.21 34.144 Z  M 53.951 40.247 C 53.951 40.562 53.511 40.94 53.196 41.128 C 52.378 41.632 51.183 42.324 50.617 42.638 C 50.05 42.324 48.981 41.632 48.163 41.128 C 47.911 40.94 47.345 40.562 47.345 40.185 C 47.345 40.122 47.345 40.059 47.345 39.87 L 50.491 37.605 L 53.951 39.933 C 53.951 40.122 53.951 40.247 53.951 40.247 Z  M 50.491 36.032 L 47.345 38.297 C 47.345 37.416 47.345 36.284 47.345 35.34 L 54.014 35.34 C 54.014 36.346 54.014 37.416 54.014 38.36 L 50.491 36.032 Z " fill="rgb(255,255,255)"/><path d=" M 44.891 54.09 L 45.52 54.153 C 45.898 54.216 46.275 54.216 46.59 54.216 L 48.414 54.279 L 48.414 53.02 L 46.59 52.957 C 46.338 52.957 46.023 52.894 45.646 52.894 L 45.017 52.831 C 44.828 52.831 44.702 52.831 44.576 52.831 L 44.639 54.09 C 44.702 54.027 44.828 54.027 44.891 54.09 Z " fill="rgb(255,255,255)"/><path d=" M 46.59 56.418 C 46.338 56.418 46.023 56.355 45.646 56.355 C 45.457 56.355 45.206 56.292 45.017 56.292 C 44.828 56.292 44.702 56.292 44.576 56.292 L 44.576 57.55 C 44.639 57.55 44.765 57.55 44.891 57.55 C 45.143 57.55 45.331 57.613 45.52 57.613 C 45.898 57.676 46.212 57.676 46.527 57.676 C 46.904 57.676 47.471 57.676 47.911 57.676 L 48.414 57.676 L 48.414 56.418 L 47.911 56.418 C 47.534 56.481 46.967 56.418 46.59 56.418 Z " fill="rgb(255,255,255)"/><path d=" M 46.59 59.941 C 46.338 59.941 46.023 59.878 45.646 59.878 C 45.457 59.878 45.206 59.815 45.017 59.815 C 44.828 59.815 44.702 59.815 44.576 59.815 L 44.639 61.074 C 44.702 61.074 44.828 61.074 44.954 61.074 C 45.206 61.074 45.394 61.137 45.583 61.137 C 45.961 61.2 46.338 61.2 46.59 61.2 L 47.093 61.2 C 47.596 61.2 48.226 61.2 48.414 61.263 L 48.414 60.004 C 48.226 60.004 47.596 60.004 47.093 59.941 L 46.59 59.941 Z " fill="rgb(255,255,255)"/><path d=" M 38.662 54.216 C 38.977 54.216 39.291 54.153 39.732 54.153 C 39.92 54.153 40.109 54.09 40.361 54.09 C 40.487 54.09 40.549 54.09 40.675 54.09 L 40.675 52.831 C 40.549 52.831 40.424 52.831 40.235 52.831 C 39.983 52.831 39.794 52.894 39.606 52.894 C 39.228 52.957 38.914 52.957 38.662 52.957 L 36.837 53.02 L 36.837 54.279 L 38.662 54.216 Z " fill="rgb(255,255,255)"/><path d=" M 39.606 56.355 C 39.228 56.418 38.914 56.418 38.662 56.418 L 36.837 56.481 L 36.837 57.739 L 38.662 57.676 C 38.977 57.676 39.291 57.613 39.732 57.613 L 40.298 57.55 C 40.424 57.55 40.487 57.55 40.549 57.55 L 40.612 56.292 C 40.487 56.292 40.361 56.292 40.172 56.292 L 39.606 56.355 Z " fill="rgb(255,255,255)"/><path d=" M 39.606 59.815 C 39.228 59.878 38.914 59.878 38.599 59.878 C 38.033 59.878 37.089 59.941 36.837 59.941 L 36.837 61.2 C 37.089 61.2 38.033 61.137 38.662 61.137 C 38.977 61.137 39.291 61.074 39.732 61.074 L 40.361 61.011 C 40.424 61.011 40.549 61.011 40.612 61.011 L 40.612 59.753 C 40.487 59.753 40.361 59.753 40.172 59.753 L 39.606 59.815 Z " fill="rgb(255,255,255)"/><path d=" M 10.663 50.189 C 12.236 50.189 13.18 49.182 13.305 47.42 C 13.305 47.106 13.305 46.665 13.242 46.225 L 13.242 46.099 L 11.921 46.099 L 12.047 46.351 C 12.11 46.539 12.173 46.98 12.173 47.357 C 12.11 48.238 11.418 48.805 10.474 48.742 C 9.467 48.679 8.901 48.049 8.901 47.169 C 8.901 46.854 8.964 46.539 9.216 46.225 L 9.404 45.973 L 8.146 45.784 L 8.083 45.91 C 7.894 46.288 7.831 46.728 7.768 47.106 C 7.643 48.93 8.649 50.126 10.474 50.189 C 10.537 50.189 10.6 50.189 10.663 50.189 Z " fill="rgb(255,255,255)"/><path d=" M 10.914 44.023 C 11.292 44.148 11.607 44.148 11.921 44.148 C 13.117 44.148 13.997 43.456 14.375 42.261 C 14.564 41.506 14.501 40.877 14.186 40.247 C 13.809 39.618 13.18 39.178 12.362 38.926 C 12.047 38.8 11.669 38.8 11.418 38.8 C 10.222 38.8 9.341 39.492 8.964 40.688 C 8.461 42.261 9.216 43.519 10.914 44.023 Z  M 10.034 41.065 C 10.222 40.373 10.789 40.247 11.229 40.247 C 11.418 40.247 11.669 40.31 11.921 40.373 C 12.487 40.562 12.928 40.814 13.117 41.191 C 13.242 41.443 13.305 41.695 13.18 42.009 C 12.991 42.701 12.424 42.827 11.984 42.827 C 11.732 42.827 11.544 42.764 11.292 42.701 C 10.537 42.45 9.782 41.883 10.034 41.065 Z " fill="rgb(255,255,255)"/><path d=" M 16.326 36.976 L 14.501 35.969 L 14.564 35.843 C 14.753 35.529 14.878 35.529 15.13 35.591 L 16.955 35.843 L 17.647 34.522 L 15.256 34.27 C 15.067 34.27 14.941 34.27 14.815 34.27 C 14.815 33.767 14.564 33.263 14.06 33.012 C 13.809 32.886 13.557 32.823 13.305 32.823 C 12.424 32.823 11.984 33.704 11.544 34.522 L 10.914 35.717 L 15.696 38.297 L 16.326 36.976 Z  M 13.494 35.277 L 13.431 35.403 L 12.55 34.962 L 12.613 34.836 C 12.802 34.459 13.054 34.081 13.431 34.27 C 13.557 34.333 13.62 34.396 13.683 34.522 C 13.746 34.773 13.62 35.088 13.494 35.277 Z " fill="rgb(255,255,255)"/><path d=" M 19.283 32.194 L 16.829 30.18 L 20.352 30.998 L 21.296 29.803 L 17.143 26.342 L 16.263 27.349 L 18.779 29.425 L 15.256 28.607 L 14.249 29.803 L 18.465 33.263 L 19.283 32.194 Z " fill="rgb(255,255,255)"/><path d=" M 25.386 26.342 L 24.631 25.461 L 23.121 26.657 L 22.429 25.839 L 23.813 24.706 L 23.058 23.826 L 21.674 24.958 L 21.17 24.266 L 22.68 23.07 L 21.925 22.127 L 19.346 24.203 L 22.743 28.419 L 25.386 26.342 Z " fill="rgb(255,255,255)"/><path d=" M 29.853 23.637 L 29.287 22.63 L 27.588 23.574 L 25.512 19.862 L 24.316 20.554 L 26.959 25.273 L 29.853 23.637 Z " fill="rgb(255,255,255)"/><path d=" M 34.446 21.875 L 34.006 20.805 L 32.244 21.435 L 30.797 17.471 L 29.476 17.911 L 31.3 23.008 L 34.446 21.875 Z " fill="rgb(255,255,255)"/><path d=" M 39.92 20.994 C 40.046 20.994 40.109 20.994 40.235 20.994 C 40.99 20.931 41.556 20.68 41.871 20.302 C 42.185 19.924 42.311 19.358 42.248 18.729 L 41.997 15.331 L 40.612 15.394 L 40.864 18.477 C 40.927 19.547 40.487 19.736 40.109 19.799 C 40.046 19.799 40.046 19.799 39.983 19.799 C 39.669 19.799 39.228 19.673 39.102 18.603 L 38.851 15.52 L 37.466 15.646 L 37.718 19.044 C 37.97 20.302 38.662 20.994 39.92 20.994 Z " fill="rgb(255,255,255)"/><path d=" M 46.149 17.785 L 47.282 21.12 L 48.855 21.372 L 49.547 15.961 L 48.226 15.772 L 47.785 18.981 L 46.653 15.583 L 45.143 15.394 L 44.388 20.742 L 45.709 20.931 L 46.149 17.785 Z " fill="rgb(255,255,255)"/><path d=" M 53.637 17.156 L 52.315 16.716 L 50.68 21.875 L 52.001 22.315 L 53.637 17.156 Z " fill="rgb(255,255,255)"/><path d=" M 60.432 20.176 L 59.237 19.547 L 56.594 22.253 L 57.16 18.54 L 55.839 17.848 L 55.021 23.574 L 56.405 24.203 L 60.432 20.176 Z " fill="rgb(255,255,255)"/><path d=" M 61.816 27.978 L 62.508 27.034 L 60.998 25.839 L 61.628 25.021 L 63.012 26.091 L 63.767 25.147 L 62.383 24.077 L 62.886 23.385 L 64.396 24.581 L 65.151 23.637 L 62.508 21.623 L 59.174 25.902 L 61.816 27.978 Z " fill="rgb(255,255,255)"/><path d=" M 64.081 30.243 L 65.654 28.859 L 65.717 28.985 C 65.906 29.237 65.906 29.299 65.78 29.614 L 64.899 31.25 L 65.906 32.383 L 66.976 30.243 C 67.039 30.18 67.102 29.992 67.102 29.803 C 67.542 29.992 68.108 29.929 68.549 29.551 C 69.744 28.544 68.8 27.475 68.108 26.657 L 67.227 25.65 L 63.138 29.237 L 64.081 30.243 Z  M 67.29 27.412 L 67.353 27.538 C 67.542 27.789 67.731 28.041 67.731 28.23 C 67.731 28.356 67.668 28.419 67.542 28.482 C 67.479 28.607 67.353 28.607 67.29 28.607 C 67.039 28.607 66.787 28.356 66.661 28.167 L 66.598 28.041 L 67.29 27.412 Z " fill="rgb(255,255,255)"/><path d=" M 69.115 34.585 C 68.863 34.773 68.486 34.459 68.36 34.207 C 68.171 33.893 68.108 33.578 68.108 33.138 L 68.108 32.823 L 66.85 33.389 L 66.913 33.641 C 67.039 34.081 67.102 34.333 67.353 34.773 C 67.794 35.529 68.36 35.906 68.989 35.906 C 69.304 35.906 69.555 35.843 69.87 35.654 C 70.814 35.088 70.688 34.207 70.562 33.515 C 70.499 33.075 70.436 32.76 70.625 32.634 C 70.751 32.571 70.814 32.571 70.877 32.571 C 71.128 32.571 71.317 32.823 71.38 32.886 C 71.569 33.138 71.632 33.452 71.695 33.767 L 71.758 34.018 L 72.89 33.515 L 72.89 33.389 C 72.827 33.012 72.638 32.634 72.387 32.194 C 71.82 31.187 70.814 30.872 69.933 31.439 C 68.989 32.005 69.115 32.886 69.241 33.515 C 69.304 34.144 69.367 34.459 69.115 34.585 Z " fill="rgb(255,255,255)"/><rect x="69.305" y="37.166" width="5.411" height="1.384" transform="matrix(0.926,-0.378,0.378,0.926,-8.965,30.004)" fill="rgb(255,255,255)"/><path d=" M 74.778 41.317 L 70.688 42.324 L 71.003 43.645 L 75.155 42.638 L 75.47 44.023 L 76.602 43.771 L 75.596 39.618 L 74.463 39.933 L 74.778 41.317 Z " fill="rgb(255,255,255)"/><path d=" M 71.632 47.861 L 71.695 49.245 L 73.834 49.119 L 77.232 50.881 L 77.169 49.371 L 75.155 48.427 L 77.043 47.232 L 76.917 45.596 L 73.771 47.798 L 71.632 47.861 Z " fill="rgb(255,255,255)"/><path d=" M 11.732 60.319 L 12.865 60.004 L 12.424 58.368 L 13.242 58.117 L 13.746 59.878 L 14.878 59.501 L 13.997 56.481 L 8.775 57.991 L 9.153 59.312 L 11.292 58.683 L 11.732 60.319 Z " fill="rgb(255,255,255)"/><path d=" M 16.577 64.849 C 16.766 64.22 16.703 63.528 16.388 62.836 C 15.885 61.829 15.13 61.326 14.123 61.326 C 13.683 61.326 13.18 61.451 12.676 61.703 C 11.858 62.081 11.355 62.647 11.103 63.339 C 10.914 63.968 10.977 64.66 11.292 65.352 C 11.795 66.296 12.55 66.862 13.557 66.862 C 13.997 66.862 14.501 66.737 15.004 66.485 C 15.822 66.044 16.388 65.541 16.577 64.849 Z  M 14.438 65.164 C 14.123 65.352 13.746 65.415 13.431 65.415 C 12.928 65.415 12.613 65.227 12.424 64.786 C 12.299 64.471 12.236 64.22 12.362 63.968 C 12.487 63.591 12.865 63.213 13.368 62.961 C 13.683 62.836 13.997 62.71 14.312 62.71 C 14.815 62.71 15.13 62.898 15.319 63.339 C 15.445 63.654 15.508 63.905 15.382 64.157 C 15.256 64.534 14.941 64.912 14.438 65.164 Z " fill="rgb(255,255,255)"/><path d=" M 20.352 69.065 L 17.898 71.015 C 17.269 71.518 16.766 71.581 16.388 71.141 C 16.263 70.952 16.2 70.763 16.2 70.575 C 16.263 70.323 16.451 70.008 16.829 69.694 L 19.283 67.743 L 18.402 66.674 L 15.696 68.813 C 15.13 69.253 14.815 69.757 14.815 70.323 C 14.815 70.826 15.004 71.33 15.445 71.896 C 15.948 72.588 16.514 72.903 17.143 72.903 C 17.584 72.903 18.024 72.714 18.465 72.336 L 21.17 70.134 L 20.352 69.065 Z " fill="rgb(255,255,255)"/><path d=" M 24.945 73.469 L 22.932 75.986 L 23.687 72.462 L 22.492 71.456 L 19.031 75.671 L 20.101 76.552 L 22.114 74.035 L 21.359 77.559 L 22.555 78.565 L 26.015 74.35 L 24.945 73.469 Z " fill="rgb(255,255,255)"/><path d=" M 28.972 76.049 L 27.588 75.357 L 25.134 80.201 L 26.518 80.893 C 27.211 81.208 27.777 81.397 28.343 81.397 C 29.287 81.397 30.042 80.893 30.545 79.887 C 31.363 78.251 30.797 76.992 28.972 76.049 Z  M 29.224 79.258 C 28.972 79.824 28.469 80.138 27.903 80.138 C 27.651 80.138 27.462 80.076 27.211 79.95 L 26.896 79.761 L 28.28 76.992 L 28.595 77.181 C 28.972 77.37 29.224 77.685 29.35 77.999 C 29.476 78.44 29.413 78.817 29.224 79.258 Z " fill="rgb(255,255,255)"/><path d=" M 31.992 83.221 L 35.201 84.102 L 35.516 82.97 L 33.628 82.466 L 33.88 81.46 L 35.642 81.9 L 35.956 80.768 L 34.195 80.327 L 34.383 79.446 L 36.334 79.95 L 36.586 78.817 L 33.377 77.999 L 31.992 83.221 Z " fill="rgb(255,255,255)"/><path d=" M 39.983 79.258 L 38.41 79.195 L 38.096 84.606 L 39.669 84.669 C 39.794 84.669 39.92 84.669 40.046 84.669 C 41.871 84.669 42.815 83.788 42.94 82.089 C 43.003 81.271 42.815 80.579 42.374 80.076 C 41.871 79.635 41.116 79.32 39.983 79.258 Z  M 39.92 83.536 L 39.543 83.536 L 39.732 80.453 L 40.109 80.453 C 40.864 80.516 41.556 81.082 41.493 82.089 C 41.43 83.096 40.675 83.536 39.92 83.536 Z " fill="rgb(255,255,255)"/><path d=" M 47.722 78.817 L 46.779 84.543 L 48.226 84.228 L 48.414 83.033 L 50.176 82.655 L 50.868 83.725 L 52.378 83.41 L 49.169 78.565 L 47.722 78.817 Z  M 48.603 81.837 L 48.792 80.39 L 49.547 81.586 L 48.603 81.837 Z " fill="rgb(255,255,255)"/><path d=" M 52.882 81.648 L 53.385 82.97 L 54.643 82.466 L 54.203 81.208 L 52.882 81.648 Z " fill="rgb(255,255,255)"/><path d=" M 55.524 76.174 L 54.14 76.93 L 56.72 81.711 L 58.104 80.956 C 59.929 79.95 60.369 78.691 59.551 77.118 C 58.733 75.482 57.349 75.168 55.524 76.174 Z  M 57.727 79.824 L 57.412 80.013 L 55.965 77.307 L 56.279 77.118 C 56.468 76.992 56.72 76.93 56.971 76.93 C 57.538 76.93 57.978 77.244 58.293 77.747 C 58.796 78.628 58.356 79.446 57.727 79.824 Z " fill="rgb(255,255,255)"/><path d=" M 60.621 77.873 L 61.376 79.006 L 62.508 78.188 L 61.753 77.055 L 60.621 77.873 Z " fill="rgb(255,255,255)"/><path d=" M 62.76 70.889 L 62.508 73.029 L 63.704 73.217 L 63.83 72.336 L 66.409 74.916 L 67.416 73.972 L 63.578 70.071 L 62.76 70.889 Z " fill="rgb(255,255,255)"/><path d=" M 70.122 68.058 C 69.681 67.743 69.178 67.68 68.612 67.869 C 68.612 67.366 68.36 66.862 67.982 66.611 C 67.29 66.107 66.409 66.422 65.717 67.303 C 65.088 68.184 65.151 69.065 65.906 69.631 C 66.284 69.883 66.787 69.945 67.227 69.82 C 67.164 70.386 67.353 70.826 67.794 71.141 C 68.108 71.393 68.423 71.456 68.737 71.456 C 69.304 71.456 69.807 71.141 70.31 70.512 C 70.688 70.008 70.877 69.505 70.814 69.002 C 70.751 68.687 70.499 68.372 70.122 68.058 Z  M 67.542 68.435 C 67.353 68.561 67.164 68.687 66.976 68.687 C 66.913 68.687 66.787 68.687 66.724 68.624 C 66.472 68.435 66.598 68.121 66.724 67.932 C 66.787 67.806 66.913 67.743 67.039 67.743 C 67.102 67.743 67.227 67.806 67.353 67.869 C 67.542 67.995 67.605 68.247 67.542 68.435 Z  M 69.43 69.945 C 69.241 70.197 68.926 70.26 68.674 70.071 C 68.486 69.883 68.36 69.694 68.423 69.316 C 68.8 69.065 69.115 69.002 69.367 69.19 C 69.492 69.253 69.555 69.379 69.555 69.505 C 69.555 69.631 69.492 69.82 69.43 69.945 Z " fill="rgb(255,255,255)"/><path d=" M 72.576 62.773 C 71.632 62.332 70.751 62.584 70.31 63.465 C 70.185 63.716 70.122 63.968 70.185 64.22 C 69.87 63.968 69.555 63.528 69.807 62.961 C 69.933 62.71 70.122 62.521 70.31 62.332 L 70.499 62.206 L 69.492 61.514 L 69.367 61.64 C 69.115 61.892 68.863 62.206 68.674 62.584 C 68.423 63.15 68.36 63.654 68.549 64.157 C 68.863 65.038 69.744 65.667 70.436 65.982 C 71.065 66.296 71.569 66.422 72.009 66.422 C 72.701 66.422 73.205 66.107 73.582 65.415 C 74.086 64.283 73.708 63.339 72.576 62.773 Z  M 72.576 64.786 C 72.513 64.975 72.324 65.038 72.135 65.038 C 72.009 65.038 71.82 64.975 71.695 64.912 C 71.443 64.786 71.254 64.597 71.191 64.471 C 71.128 64.346 71.191 64.283 71.191 64.157 C 71.254 63.968 71.38 63.905 71.632 63.905 C 71.758 63.905 71.946 63.968 72.135 64.031 C 72.387 64.157 72.513 64.283 72.576 64.471 C 72.638 64.597 72.576 64.723 72.576 64.786 Z " fill="rgb(255,255,255)"/><path d=" M 74.526 57.236 C 73.456 56.921 72.576 57.424 72.261 58.431 C 72.261 58.557 72.198 58.62 72.198 58.683 L 71.569 58.494 L 72.135 56.607 L 71.065 56.292 L 70.122 59.438 L 73.142 60.382 L 73.142 60.13 C 73.142 59.815 73.205 59.564 73.268 59.249 C 73.331 58.997 73.645 58.368 74.211 58.494 C 74.841 58.683 74.715 59.375 74.652 59.564 C 74.526 59.941 74.337 60.193 74.148 60.445 L 73.96 60.633 L 75.218 61.074 L 75.281 60.948 C 75.47 60.57 75.659 60.13 75.784 59.815 C 75.973 59.186 75.973 58.62 75.721 58.117 C 75.47 57.739 75.029 57.424 74.526 57.236 Z " fill="rgb(255,255,255)"/><path d=" M 15.067 50 C 15.067 65.101 27.336 77.433 42.437 77.433 C 57.538 77.433 69.807 65.164 69.807 50 C 69.807 34.899 57.538 22.63 42.437 22.63 C 27.399 22.567 15.067 34.899 15.067 50 Z  M 42.5 23.511 C 57.097 23.511 68.926 35.403 68.926 49.937 C 68.926 64.534 57.034 76.363 42.5 76.363 C 27.903 76.363 16.074 64.471 16.074 49.937 C 16.011 35.403 27.903 23.511 42.5 23.511 Z " fill="rgb(255,255,255)"/><path d=" M 42.5 12.5 C 21.799 12.5 5 29.299 5 50 C 5 70.638 21.799 87.5 42.5 87.5 C 63.138 87.5 80 70.701 80 50 C 79.937 29.299 63.138 12.5 42.5 12.5 Z  M 42.5 86.493 C 22.366 86.493 6.007 70.134 6.007 50 C 6.007 29.866 22.366 13.507 42.5 13.507 C 62.634 13.507 78.993 29.866 78.993 50 C 78.993 70.134 62.634 86.493 42.5 86.493 Z " fill="rgb(255,255,255)"/></g><path d=" M 119.584 49.28 L 119.584 54.704 L 118.048 54.704 L 118.048 66.512 L 113.056 66.512 L 112.432 63.248 L 112.432 63.248 Q 110.992 64.928 108.76 65.96 L 108.76 65.96 L 108.76 65.96 Q 106.528 66.992 103.504 66.992 L 103.504 66.992 L 103.504 66.992 Q 96.928 66.992 93.064 62.432 L 93.064 62.432 L 93.064 62.432 Q 89.2 57.872 89.2 51.152 L 89.2 51.152 L 89.2 51.152 Q 89.2 44.432 93.28 39.632 L 93.28 39.632 L 93.28 39.632 Q 97.36 34.832 105.28 34.832 L 105.28 34.832 L 105.28 34.832 Q 109.072 34.832 112.168 35.936 L 112.168 35.936 L 112.168 35.936 Q 115.264 37.04 116.8 38.576 L 116.8 38.576 L 117.664 45.344 L 112.48 45.824 L 111.616 42.176 L 111.616 42.176 Q 110.368 41.36 108.472 40.928 L 108.472 40.928 L 108.472 40.928 Q 106.576 40.496 104.992 40.496 L 104.992 40.496 L 104.992 40.496 Q 101.152 40.496 98.632 43.088 L 98.632 43.088 L 98.632 43.088 Q 96.112 45.68 96.112 51.056 L 96.112 51.056 L 96.112 51.056 Q 96.112 56.24 98.488 58.784 L 98.488 58.784 L 98.488 58.784 Q 100.864 61.328 104.656 61.328 L 104.656 61.328 L 104.656 61.328 Q 107.824 61.328 109.696 59.648 L 109.696 59.648 L 109.696 59.648 Q 111.568 57.968 111.568 54.896 L 111.568 54.896 L 111.568 54.704 L 105.472 54.704 L 105.472 49.28 L 119.584 49.28 L 119.584 49.28 Z  M 135.76 61.04 L 135.76 66.512 L 122.608 66.512 L 122.608 61.04 L 125.968 61.04 L 125.968 40.784 L 122.608 40.784 L 122.608 35.312 L 135.76 35.312 L 135.76 40.784 L 132.4 40.784 L 132.4 61.04 L 135.76 61.04 L 135.76 61.04 Z  M 163.888 55.472 L 162.928 66.512 L 139.504 66.512 L 139.504 61.04 L 142.864 61.04 L 142.864 40.784 L 139.504 40.784 L 139.504 35.312 L 153.664 35.312 L 153.664 40.784 L 149.296 40.784 L 149.296 61.04 L 157.456 61.04 L 158.416 54.992 L 163.888 55.472 L 163.888 55.472 Z  M 192.448 45.488 L 192.448 45.488 L 192.448 45.488 Q 192.448 50.816 188.968 53.432 L 188.968 53.432 L 188.968 53.432 Q 185.488 56.048 180.88 56.048 L 180.88 56.048 L 176.08 56.048 L 176.08 61.04 L 180.88 61.04 L 180.88 66.512 L 166.288 66.512 L 166.288 61.04 L 169.648 61.04 L 169.648 40.784 L 166.288 40.784 L 166.288 35.312 L 180.592 35.312 L 180.592 35.312 Q 186.4 35.312 189.424 38.048 L 189.424 38.048 L 189.424 38.048 Q 192.448 40.784 192.448 45.488 Z  M 185.536 45.584 L 185.536 45.584 L 185.536 45.584 Q 185.536 43.28 184.264 42.032 L 184.264 42.032 L 184.264 42.032 Q 182.992 40.784 179.776 40.784 L 179.776 40.784 L 176.08 40.784 L 176.08 50.624 L 179.68 50.624 L 179.68 50.624 Q 182.992 50.624 184.264 49.232 L 184.264 49.232 L 184.264 49.232 Q 185.536 47.84 185.536 45.584 Z " fill="rgb(255,255,255)"/></g></svg>